<svg xmlns="http://www.w3.org/2000/svg" viewBox="0 0 1024 1024" fill="none">
  <defs>
    <linearGradient id="bg" x1="134" y1="92" x2="890" y2="932" gradientUnits="userSpaceOnUse">
      <stop offset="0" stop-color="#F9C7D9"/>
      <stop offset="0.38" stop-color="#D8C9FF"/>
      <stop offset="0.72" stop-color="#BFE7F6"/>
      <stop offset="1" stop-color="#F9E1B8"/>
    </linearGradient>
    <radialGradient id="glow" cx="0" cy="0" r="1" gradientUnits="userSpaceOnUse" gradientTransform="translate(342 280) rotate(45) scale(650)">
      <stop offset="0" stop-color="#FFFFFF" stop-opacity="0.42"/>
      <stop offset="0.58" stop-color="#FFFFFF" stop-opacity="0.08"/>
      <stop offset="1" stop-color="#FFFFFF" stop-opacity="0"/>
    </radialGradient>
    <filter id="soft" x="-80" y="-80" width="1184" height="1184" color-interpolation-filters="sRGB">
      <feGaussianBlur stdDeviation="18"/>
    </filter>
  </defs>
  <rect width="1024" height="1024" rx="226" fill="url(#bg)"/>
  <rect width="1024" height="1024" rx="226" fill="url(#glow)"/>
  <path d="M197 329C268 183 432 143 568 171C714 201 833 319 846 477C861 658 741 814 571 850C395 887 220 800 164 639C128 535 151 423 197 329Z" fill="#FFFFFF" opacity="0.12" filter="url(#soft)"/>
  <path d="M306 419C310 384 341 363 374 372C405 381 421 413 412 444C403 475 374 493 342 484C313 476 301 452 306 419Z" fill="#FFFFFF"/>
  <path d="M649 419C656 383 687 366 718 375C749 383 765 414 757 445C749 475 719 493 687 486C658 480 643 451 649 419Z" fill="#FFFFFF"/>
  <path d="M288 595C360 721 529 768 676 694C724 670 762 637 790 597" stroke="#FFFFFF" stroke-width="60" stroke-linecap="round" stroke-linejoin="round"/>
  <path d="M310 588C377 693 522 734 648 680C696 659 738 627 770 584" stroke="#FFFFFF" stroke-width="18" stroke-linecap="round" opacity="0.42"/>
</svg>
